# xmcd CD Database Entry
#
# Track frame offsets:
# 150
# 21226
# 39901
# 71851
# 94714
# 121068
# 142069
# 158082
# 188789
#
# Disc length: 2886 seconds
#
# Revision: 9
# Processed by: cddbd v1.5PL3 Copyright (c) Steve Scherf et al.
# Submitted via: tcd 2.0b
#
DISCID=750b4409
DTITLE=Brian Cheney - This Ransomed Sinner
DYEAR=1900
DGENRE=
TTITLE0=Without the Blood
TTITLE1=When I Look at You Now
TTITLE2=Through This World
TTITLE3=Home to Me
TTITLE4=Bride
TTITLE5=There Has Never Been
TTITLE6=Disconnected
TTITLE7=Sing Again
TTITLE8=Arise, My Soul, Arise
EXTD=
EXTT0=
EXTT1=
EXTT2=
EXTT3=
EXTT4=
EXTT5=
EXTT6=
EXTT7=
EXTT8=
PLAYORDER=
